<svg width="2415" height="1136" viewBox="0 0 2415 1136" fill="none" xmlns="http://www.w3.org/2000/svg">
<g clip-path="url(#clip0)">
<rect width="2415" height="1136" fill="#F4F5FA"/>
<path d="M1762.14 864.29C1671.21 991.814 1526.48 1039.26 1399.37 1031.53C1271.67 1024.38 1161.7 960.974 1147.92 850.504C1134.74 739.437 1217.85 580.231 1364.05 484.114C1510.26 387.997 1720.15 354.373 1806.24 441.657C1891.84 528.459 1853.66 736.17 1762.14 864.29Z" fill="#EEF0F8"/>
<path d="M711.182 440.838C647.129 440.461 594.256 401.758 579.987 357.779C565.718 313.8 590.118 264.281 633.495 224.927C676.939 185.31 739.096 155.79 790.981 180.794C842.604 205.732 883.693 285.127 866.752 343.833C849.745 402.801 774.971 441.147 711.182 440.838Z" fill="#EEF0F8"/>
</g>
<defs>
<clipPath id="clip0">
<rect width="2415" height="1136" fill="white"/>
</clipPath>
</defs>
</svg>
