<svg width="2415" height="1136" viewBox="0 0 2415 1136" fill="none" xmlns="http://www.w3.org/2000/svg">
<rect width="2415" height="1136" fill="white"/>
<path d="M2174.32 854.111C2170.02 855.06 2163.87 851.913 2158.2 845.725C2152.58 839.54 2147.44 830.345 2151.3 826.053C2155.16 821.761 2168.04 822.376 2174.91 826.057C2181.75 829.735 2182.59 836.449 2181.81 842.298C2181.03 848.179 2178.61 853.193 2174.32 854.111Z" fill="#3D8CEF"/>
<path d="M235.413 616.951C247.362 612.622 266.807 615.337 276.485 623.754C286.166 632.218 286.08 646.382 276.926 656.102C267.776 665.869 249.56 671.237 237.619 668.44C225.678 665.642 220.015 654.771 219.478 643.668C218.874 632.569 223.396 621.237 235.413 616.951Z" fill="#FDB432"/>
</svg>
