<svg width="1320" height="1320" viewBox="0 0 1320 1320" fill="none" xmlns="http://www.w3.org/2000/svg">
<g filter="url(#filter0_d)">
<rect x="85" y="94" width="1088" height="1088" rx="60" fill="#49AF8C"/>
<rect x="85" y="94" width="1088" height="1088" rx="60" stroke="#38A27D" stroke-width="89"/>
</g>
<path d="M853.034 444.512H841.364C851.623 432.33 857.072 417.044 856.803 400.929C856.206 365.128 826.18 336.003 789.87 336.003H682.004C675.49 336.003 670.209 341.285 670.209 347.798C670.209 354.312 675.49 359.594 682.004 359.594H789.87C813.388 359.594 832.831 378.313 833.216 401.323C833.408 412.81 829.083 423.642 821.037 431.822C812.989 440.006 802.238 444.512 790.763 444.512C784.248 444.512 778.968 449.794 778.968 456.307C778.968 462.82 784.248 468.102 790.763 468.102H853.034C882.955 468.102 907.297 492.446 907.297 522.366C907.297 552.287 882.955 576.63 853.034 576.63H830.402C829.975 576.63 829.548 576.654 829.124 576.7C794.341 580.491 768.11 609.76 768.11 644.786V751.781C768.11 774.663 749.493 793.279 726.611 793.279C703.729 793.279 685.112 774.664 685.112 751.781V651.513C685.112 635.227 679.955 619.764 670.42 606.948C672.406 604.695 674.292 602.317 676.055 599.801C713.407 546.455 709.737 474.878 667.127 425.738C664.459 422.662 660.393 421.174 656.372 421.815C652.349 422.451 648.94 425.116 647.353 428.866C645.25 433.834 642.597 438.619 639.47 443.086C628.579 458.639 612.438 469.577 594.004 473.9C573.418 477.968 555.45 489.685 543.389 506.908C530.982 524.626 526.218 546.115 529.974 567.418C530.527 570.555 531.276 573.625 532.173 576.632H428.422C398.501 576.632 374.158 552.289 374.158 522.369C374.158 492.448 398.502 468.105 428.422 468.105H490.692C497.206 468.105 502.487 462.823 502.487 456.309C502.487 449.796 497.206 444.514 490.692 444.514C479.216 444.514 468.465 440.008 460.417 431.824C452.372 423.643 448.047 412.813 448.239 401.325C448.623 378.316 468.068 359.596 491.584 359.596H575.844C582.359 359.596 587.64 354.314 587.64 347.801C587.64 341.287 582.359 336.005 575.844 336.005H491.586C455.277 336.005 425.25 365.131 424.652 400.931C424.383 417.046 429.833 432.333 440.091 444.514H428.423C385.494 444.514 350.569 479.439 350.569 522.369C350.569 565.298 385.494 600.223 428.423 600.223H519.029C482.797 635.179 449.594 674.079 420.089 716.217C382.792 769.481 352.398 826.432 329.753 885.49C323.057 902.952 328.847 921.89 344.163 932.613C351.22 937.554 359.222 939.999 367.184 939.999C376.5 939.999 385.76 936.651 393.373 930.038C441.12 888.561 484.243 840.521 521.541 787.254C555.393 738.909 583.581 687.448 605.429 634.187C606.822 634.259 608.215 634.307 609.609 634.307C624.589 634.306 639.436 630.162 652.329 622.21C658.299 630.743 661.524 640.87 661.524 651.516V751.783C661.524 787.674 690.722 816.873 726.613 816.873C762.505 816.873 791.703 787.674 791.703 751.783V644.789C791.703 622.028 808.588 602.976 831.081 600.224H853.035C895.964 600.224 930.889 565.299 930.889 522.37C930.889 479.44 895.962 444.512 853.034 444.512V444.512ZM658.794 456.614C659.12 456.148 659.441 455.681 659.758 455.211C678.934 485.336 683.224 522.298 672.121 555.675C669.519 553.066 666.616 550.739 663.443 548.781C652.636 542.112 639.841 540.142 627.415 543.229C619.327 545.24 610.977 542.921 605.083 537.027C599.188 531.133 596.869 522.784 598.879 514.694L603.579 495.786C625.92 489.525 645.401 475.742 658.794 456.614V456.614ZM502.216 773.721C466.021 825.41 424.196 872.01 377.901 912.225C370.753 918.437 362.776 916.846 357.693 913.286C352.611 909.728 348.389 902.775 351.779 893.933C373.736 836.674 403.22 781.433 439.412 729.746C446.603 719.476 454.031 709.417 461.662 699.555C470.3 708.549 479.822 716.726 490.122 723.937C500.492 731.199 511.511 737.387 522.999 742.447C516.336 753.004 509.416 763.438 502.216 773.721ZM535.415 722.096C524.287 717.445 513.63 711.597 503.654 704.612C493.748 697.675 484.665 689.725 476.532 680.932C498.711 654.012 522.527 628.789 547.772 605.529C552.253 610.831 557.435 615.597 563.272 619.685C569.167 623.812 575.427 627.03 581.885 629.392C568.669 661.062 553.12 692.057 535.415 722.096V722.096ZM576.805 600.362C564.248 591.57 555.867 578.416 553.206 563.319C550.544 548.223 553.92 532.994 562.712 520.438C566.567 514.933 571.278 510.229 576.621 506.451L575.987 509.004C571.963 525.198 576.604 541.909 588.403 553.708C600.2 565.505 616.912 570.145 633.106 566.123C639.319 564.575 645.694 565.548 651.055 568.856C655.422 571.551 658.779 575.592 660.663 580.239C659.412 582.275 658.115 584.291 656.73 586.268C638.58 612.189 602.726 618.512 576.805 600.362V600.362Z" fill="white"/>
<path d="M636.91 355.781L636.909 355.782C634.81 357.892 631.895 359.091 628.924 359.091C625.953 359.091 623.039 357.892 620.939 355.782L620.938 355.781C618.838 353.681 617.629 350.776 617.629 347.795C617.629 344.826 618.838 341.91 620.938 339.81C623.039 337.709 625.955 336.5 628.924 336.5C631.894 336.5 634.81 337.71 636.91 339.81C639.011 341.91 640.22 344.826 640.22 347.795C640.22 350.775 639.011 353.681 636.91 355.781Z" fill="white" stroke="#38A27D" stroke-width="0.999883"/>
<defs>
<filter id="filter0_d" x="0.5" y="0.5" width="1319" height="1319" filterUnits="userSpaceOnUse" color-interpolation-filters="sRGB">
<feFlood flood-opacity="0" result="BackgroundImageFix"/>
<feColorMatrix in="SourceAlpha" type="matrix" values="0 0 0 0 0 0 0 0 0 0 0 0 0 0 0 0 0 0 127 0"/>
<feMorphology radius="33" operator="dilate" in="SourceAlpha" result="effect1_dropShadow"/>
<feOffset dx="31" dy="22"/>
<feGaussianBlur stdDeviation="19"/>
<feColorMatrix type="matrix" values="0 0 0 0 0 0 0 0 0 0 0 0 0 0 0 0 0 0 0.02 0"/>
<feBlend mode="normal" in2="BackgroundImageFix" result="effect1_dropShadow"/>
<feBlend mode="normal" in="SourceGraphic" in2="effect1_dropShadow" result="shape"/>
</filter>
</defs>
</svg>
