<svg width="1320" height="1320" viewBox="0 0 1320 1320" fill="none" xmlns="http://www.w3.org/2000/svg">
<g filter="url(#filter0_d)">
<rect x="85" y="94" width="1088" height="1088" rx="60" fill="#F47157"/>
<rect x="85" y="94" width="1088" height="1088" rx="60" stroke="#EE5C3E" stroke-width="89"/>
</g>
<path d="M887.352 336C863.284 336 843.703 355.58 843.703 379.648V435.094H745.396V428.016C745.396 403.298 725.286 383.188 700.568 383.188C675.85 383.188 655.74 403.298 655.74 428.016V435.094H613.271V428.016C613.271 403.298 593.161 383.188 568.443 383.188C555.383 383.188 543.613 388.804 535.412 397.746C527.211 388.805 515.441 383.188 502.381 383.188C477.663 383.188 457.552 403.298 457.552 428.016V435.094H414.297V379.648C414.297 355.58 394.716 336 370.648 336C346.58 336 327 355.58 327 379.648V928.203C327 934.719 332.281 940 338.797 940H919.203C925.719 940 931 934.719 931 928.203V379.648C931 355.58 911.42 336 887.352 336ZM867.297 379.648C867.297 368.59 876.293 359.594 887.352 359.594C898.41 359.594 907.406 368.59 907.406 379.648V850.344H867.297V379.648ZM721.802 777.203C721.802 788.912 712.276 798.438 700.568 798.438C688.86 798.438 679.334 788.912 679.334 777.203V739.453C679.334 727.745 688.86 718.219 700.568 718.219C712.276 718.219 721.802 727.745 721.802 739.453V777.203ZM700.568 694.625C675.85 694.625 655.74 714.735 655.74 739.453V746.531H613.271V739.453C613.271 714.735 593.161 694.625 568.443 694.625C555.383 694.625 543.613 700.241 535.412 709.184C527.211 700.243 515.441 694.625 502.381 694.625C477.663 694.625 457.552 714.735 457.552 739.453V746.531H414.297V614.406H582.205V621.484C582.205 646.202 602.315 666.312 627.033 666.312C640.094 666.312 651.864 660.696 660.065 651.754C668.266 660.695 680.036 666.312 693.096 666.312C706.156 666.312 717.926 660.696 726.127 651.754C734.328 660.695 746.098 666.312 759.158 666.312C783.876 666.312 803.987 646.202 803.987 621.484V614.406H843.703V746.531H745.396V739.453C745.396 714.735 725.286 694.625 700.568 694.625ZM547.209 739.453C547.209 727.745 556.735 718.219 568.443 718.219C580.152 718.219 589.677 727.745 589.677 739.453V777.203C589.677 788.912 580.152 798.438 568.443 798.438C556.735 798.438 547.209 788.912 547.209 777.203V739.453ZM523.615 777.203C523.615 788.912 514.089 798.438 502.381 798.438C490.672 798.438 481.146 788.912 481.146 777.203V739.453C481.146 727.745 490.672 718.219 502.381 718.219C514.089 718.219 523.615 727.745 523.615 739.453V777.203ZM648.268 621.484C648.268 633.193 638.742 642.719 627.033 642.719C615.325 642.719 605.799 633.193 605.799 621.484V583.734C605.799 572.026 615.325 562.5 627.033 562.5C638.742 562.5 648.268 572.026 648.268 583.734V621.484ZM671.862 583.734C671.862 572.026 681.388 562.5 693.096 562.5C704.804 562.5 714.33 572.026 714.33 583.734V621.484C714.33 633.193 704.804 642.719 693.096 642.719C681.388 642.719 671.862 633.193 671.862 621.484V583.734ZM737.924 583.734C737.924 572.026 747.45 562.5 759.158 562.5C770.867 562.5 780.393 572.026 780.393 583.734V621.484C780.393 633.193 770.867 642.719 759.158 642.719C747.45 642.719 737.924 633.193 737.924 621.484V583.734ZM679.334 428.016C679.334 416.307 688.86 406.781 700.568 406.781C712.276 406.781 721.802 416.307 721.802 428.016V465.766C721.802 477.474 712.276 487 700.568 487C688.86 487 679.334 477.474 679.334 465.766V428.016ZM568.443 406.781C580.152 406.781 589.677 416.307 589.677 428.016V465.766C589.677 477.474 580.152 487 568.443 487C556.735 487 547.209 477.474 547.209 465.766V428.016C547.209 416.307 556.734 406.781 568.443 406.781ZM481.146 428.016C481.146 416.307 490.672 406.781 502.381 406.781C514.089 406.781 523.615 416.307 523.615 428.016V465.766C523.615 477.474 514.089 487 502.381 487C490.672 487 481.146 477.474 481.146 465.766V428.016ZM457.552 458.688V465.766C457.552 490.484 477.663 510.594 502.381 510.594C515.441 510.594 527.211 504.977 535.412 496.035C543.613 504.976 555.383 510.594 568.443 510.594C593.161 510.594 613.271 490.484 613.271 465.766V458.688H655.74V465.766C655.74 490.484 675.85 510.594 700.568 510.594C725.286 510.594 745.396 490.484 745.396 465.766V458.688H843.703V590.812H803.987V583.734C803.987 559.016 783.876 538.906 759.158 538.906C746.098 538.906 734.328 544.523 726.127 553.465C717.926 544.524 706.156 538.906 693.096 538.906C680.036 538.906 668.266 544.523 660.065 553.465C651.864 544.524 640.094 538.906 627.033 538.906C602.315 538.906 582.205 559.016 582.205 583.734V590.812H414.297V458.688H457.552ZM350.594 379.648C350.594 368.59 359.59 359.594 370.648 359.594C381.707 359.594 390.703 368.59 390.703 379.648V850.344H350.594V379.648ZM907.406 916.406H350.594V873.938H579.525C586.041 873.938 591.322 868.656 591.322 862.141C591.322 855.625 586.041 850.344 579.525 850.344H414.297V770.125H457.552V777.203C457.552 801.921 477.663 822.031 502.381 822.031C515.441 822.031 527.211 816.415 535.412 807.473C543.613 816.414 555.383 822.031 568.443 822.031C593.161 822.031 613.271 801.921 613.271 777.203V770.125H655.74V777.203C655.74 801.921 675.85 822.031 700.568 822.031C725.286 822.031 745.396 801.921 745.396 777.203V770.125H843.703V850.344H685.698C679.183 850.344 673.901 855.625 673.901 862.141C673.901 868.656 679.183 873.938 685.698 873.938H907.406V916.406Z" fill="white"/>
<path d="M632.609 850.344C629.507 850.344 626.463 851.606 624.269 853.8C622.075 855.994 620.812 859.038 620.812 862.141C620.812 865.243 622.075 868.287 624.269 870.481C626.463 872.675 629.507 873.938 632.609 873.938C635.712 873.938 638.756 872.675 640.95 870.481C643.144 868.287 644.406 865.243 644.406 862.141C644.406 859.038 643.144 855.994 640.95 853.8C638.756 851.606 635.712 850.344 632.609 850.344Z" fill="white"/>
<defs>
<filter id="filter0_d" x="0.5" y="0.5" width="1319" height="1319" filterUnits="userSpaceOnUse" color-interpolation-filters="sRGB">
<feFlood flood-opacity="0" result="BackgroundImageFix"/>
<feColorMatrix in="SourceAlpha" type="matrix" values="0 0 0 0 0 0 0 0 0 0 0 0 0 0 0 0 0 0 127 0"/>
<feMorphology radius="33" operator="dilate" in="SourceAlpha" result="effect1_dropShadow"/>
<feOffset dx="31" dy="22"/>
<feGaussianBlur stdDeviation="19"/>
<feColorMatrix type="matrix" values="0 0 0 0 0 0 0 0 0 0 0 0 0 0 0 0 0 0 0.02 0"/>
<feBlend mode="normal" in2="BackgroundImageFix" result="effect1_dropShadow"/>
<feBlend mode="normal" in="SourceGraphic" in2="effect1_dropShadow" result="shape"/>
</filter>
</defs>
</svg>
