<svg width="1320" height="1320" viewBox="0 0 1320 1320" fill="none" xmlns="http://www.w3.org/2000/svg">
<g filter="url(#filter0_d)">
<rect x="85" y="94" width="1088" height="1088" rx="60" fill="#3D8CEF"/>
<rect x="85" y="94" width="1088" height="1088" rx="60" stroke="#3080E3" stroke-width="89"/>
</g>
<path d="M629 751.25C632.103 751.25 635.146 749.988 637.339 747.792C639.535 745.599 640.797 742.556 640.797 739.453C640.797 736.351 639.535 733.307 637.339 731.113C635.146 728.919 632.103 727.656 629 727.656C625.897 727.656 622.854 728.917 620.66 731.113C618.465 733.307 617.203 736.351 617.203 739.453C617.203 742.556 618.465 745.599 620.66 747.792C622.855 749.988 625.897 751.25 629 751.25Z" fill="white"/>
<path d="M893.251 701.553H820.109V642.569C820.109 623.054 804.234 607.178 784.72 607.178H784.719C765.204 607.178 749.328 623.054 749.328 642.569V701.553H674.15C663.322 688.675 647.105 680.469 629 680.469C610.895 680.469 594.678 688.675 583.85 701.553H508.672V642.569C508.672 623.054 492.796 607.178 473.281 607.178C453.767 607.178 437.891 623.054 437.891 642.569V701.553H364.75C343.934 701.553 327 718.488 327 739.303C327 760.119 343.934 777.053 364.75 777.053H420.195C426.711 777.053 431.992 771.771 431.992 765.256C431.992 758.742 426.711 753.459 420.195 753.459H364.75C356.944 753.459 350.594 747.109 350.594 739.303C350.594 731.497 356.944 725.147 364.75 725.147H571.779C570.634 729.73 570.016 734.521 570.016 739.453C570.016 744.279 570.611 748.967 571.71 753.459H526.367C519.852 753.459 514.57 758.742 514.57 765.256C514.57 771.771 519.852 777.053 526.367 777.053H583.59C585.969 779.92 588.61 782.56 591.481 784.934L521.637 916.406H483.825C477.31 916.406 472.028 921.689 472.028 928.203C472.028 934.717 477.31 940 483.825 940H774.177C780.691 940 785.974 934.717 785.974 928.203C785.974 921.689 780.691 916.406 774.177 916.406H736.366L666.52 784.932C669.391 782.56 672.033 779.92 674.41 777.053H893.251C914.067 777.053 931 760.119 931 739.303C931 718.488 914.067 701.553 893.251 701.553V701.553ZM461.484 701.553V642.569C461.484 636.064 466.776 630.772 473.281 630.772C479.786 630.772 485.078 636.064 485.078 642.569V701.553H461.484ZM772.922 642.569C772.922 636.064 778.214 630.772 784.72 630.772C791.225 630.772 796.516 636.064 796.516 642.569V701.553H772.922V642.569ZM629 704.062C648.514 704.062 664.391 719.939 664.391 739.453C664.391 758.967 648.514 774.844 629 774.844C609.486 774.844 593.609 758.967 593.609 739.453C593.609 719.939 609.486 704.062 629 704.062ZM709.651 916.406H548.352L612.309 796.017C617.605 797.582 623.203 798.437 629 798.437C634.797 798.437 640.396 797.582 645.691 796.017L709.651 916.406ZM893.251 753.459H686.29C687.39 748.967 687.984 744.28 687.984 739.453C687.984 734.52 687.367 729.73 686.221 725.147H893.251C901.056 725.147 907.406 731.497 907.406 739.303C907.406 747.109 901.057 753.459 893.251 753.459Z" fill="white"/>
<path d="M387.779 520.883C397.803 520.883 407.546 518.428 416.238 513.818C425.574 527.37 441.073 535.791 458.273 535.791C476.486 535.791 492.662 526.314 501.723 511.652C511.901 518.585 523.997 522.373 536.689 522.373C571.024 522.373 598.958 494.439 598.958 460.105C598.958 425.771 571.024 397.837 536.689 397.837C533.412 397.837 530.172 398.088 526.983 398.587C518.973 362.518 486.989 336 448.673 336C409.541 336 376.414 364.386 369.68 402.084C344.812 409.894 327.002 433.409 327.002 460.105C327.002 493.618 354.267 520.883 387.779 520.883V520.883ZM382.144 423.344C387.621 422.514 391.782 417.985 392.147 412.457C394.1 382.815 418.929 359.594 448.673 359.594C479.248 359.594 504.113 383.508 505.279 414.04C505.426 417.912 507.466 421.465 510.736 423.545C514.006 425.623 518.088 425.965 521.657 424.457C526.413 422.448 531.47 421.429 536.689 421.429C558.014 421.429 575.364 438.779 575.364 460.104C575.364 481.43 558.014 498.778 536.689 498.778C524.761 498.778 513.678 493.384 506.28 483.979C503.395 480.31 498.615 478.69 494.092 479.842C489.569 480.995 486.151 484.708 485.375 489.311C483.14 502.571 471.743 512.195 458.273 512.195C446.145 512.195 435.587 504.419 432.002 492.849C430.809 488.995 427.728 486.018 423.835 484.958C422.811 484.68 421.77 484.543 420.734 484.543C417.834 484.543 414.992 485.613 412.794 487.615C405.938 493.853 397.055 497.288 387.778 497.288C367.275 497.288 350.593 480.607 350.593 460.103C350.596 441.875 364.159 426.073 382.144 423.344V423.344Z" fill="white"/>
<path d="M740.215 554.292C749.05 554.292 757.65 552.212 765.384 548.299C774.041 560.275 788.023 567.675 803.499 567.675C819.84 567.675 834.4 559.395 842.862 546.486C851.977 552.408 862.682 555.631 873.896 555.631C905.383 555.631 931.001 530.013 931.001 498.524C931.001 467.036 905.383 441.418 873.896 441.418C871.271 441.418 868.672 441.593 866.108 441.942C858.398 409.578 829.464 385.907 794.879 385.907C759.412 385.907 729.347 411.458 722.909 445.509C700.456 452.894 684.445 474.279 684.445 498.524C684.445 529.274 709.464 554.292 740.215 554.292ZM735.336 466.717C740.813 465.886 744.974 461.357 745.338 455.829C747.051 429.85 768.812 409.5 794.878 409.5C821.676 409.5 843.467 430.461 844.49 457.218C844.639 461.089 846.678 464.643 849.948 466.722C853.218 468.803 857.299 469.145 860.871 467.633C864.989 465.893 869.371 465.011 873.895 465.011C892.373 465.011 907.406 480.045 907.406 498.523C907.406 517.002 892.373 532.036 873.895 532.036C863.56 532.036 853.956 527.361 847.544 519.21C844.656 515.54 839.872 513.919 835.356 515.073C830.832 516.227 827.415 519.939 826.638 524.542C824.73 535.864 814.999 544.08 803.498 544.08C793.142 544.08 784.128 537.442 781.068 527.562C779.873 523.708 776.794 520.732 772.901 519.671C771.877 519.393 770.834 519.256 769.799 519.256C766.898 519.256 764.058 520.326 761.859 522.328C755.928 527.725 748.24 530.698 740.214 530.698C722.473 530.698 708.039 516.266 708.039 498.524C708.039 482.751 719.775 469.076 735.336 466.717V466.717Z" fill="white"/>
<path d="M481.622 773.593C483.816 771.4 485.078 768.356 485.078 765.254C485.078 762.151 483.816 759.108 481.622 756.914C479.427 754.719 476.384 753.457 473.281 753.457C470.179 753.457 467.135 754.718 464.941 756.914C462.747 759.108 461.484 762.151 461.484 765.254C461.484 768.356 462.747 771.4 464.941 773.593C467.135 775.799 470.179 777.051 473.281 777.051C476.384 777.05 479.427 775.799 481.622 773.593Z" fill="white"/>
<defs>
<filter id="filter0_d" x="0.5" y="0.5" width="1319" height="1319" filterUnits="userSpaceOnUse" color-interpolation-filters="sRGB">
<feFlood flood-opacity="0" result="BackgroundImageFix"/>
<feColorMatrix in="SourceAlpha" type="matrix" values="0 0 0 0 0 0 0 0 0 0 0 0 0 0 0 0 0 0 127 0"/>
<feMorphology radius="33" operator="dilate" in="SourceAlpha" result="effect1_dropShadow"/>
<feOffset dx="31" dy="22"/>
<feGaussianBlur stdDeviation="19"/>
<feColorMatrix type="matrix" values="0 0 0 0 0 0 0 0 0 0 0 0 0 0 0 0 0 0 0.02 0"/>
<feBlend mode="normal" in2="BackgroundImageFix" result="effect1_dropShadow"/>
<feBlend mode="normal" in="SourceGraphic" in2="effect1_dropShadow" result="shape"/>
</filter>
</defs>
</svg>
