<svg width="1320" height="1320" viewBox="0 0 1320 1320" fill="none" xmlns="http://www.w3.org/2000/svg">
<g filter="url(#filter0_d)">
<rect x="85" y="94" width="1088" height="1088" rx="60" fill="#FDB432"/>
<rect x="85" y="94" width="1088" height="1088" rx="60" stroke="#EEA82B" stroke-width="89"/>
</g>
<path d="M931.008 524.213C931.008 519.696 928.429 515.576 924.365 513.602C920.302 511.627 915.467 512.148 911.917 514.941C877.413 542.081 834.444 557.314 790.584 558.034H641.692C658.078 534.308 666.785 506.189 666.573 476.691C666.304 439.882 651.373 404.833 624.528 378C597.683 351.168 562.627 336.253 525.818 336.003C452.63 335.513 391.738 390.373 383.937 462.212L348.4 477.13C333.756 483.276 325.448 497.444 327.234 513.225C329.02 529.005 340.284 540.958 355.929 543.677L402.347 551.745V614.232C402.347 620.747 407.63 626.029 414.144 626.029C420.658 626.029 425.941 620.747 425.941 614.232V545.81C425.941 543.624 425.333 541.482 424.187 539.62C423.263 538.121 422.478 536.796 421.788 535.573C420.051 532.488 417.019 530.347 413.531 529.74L359.97 520.431C352.231 519.086 350.902 512.544 350.679 510.571C350.456 508.599 350.291 501.924 357.533 498.884L399.67 481.197C403.83 479.451 406.629 475.486 406.883 470.983C410.409 408.367 462.142 359.594 524.835 359.594C525.108 359.594 525.385 359.594 525.658 359.596C588.794 360.025 642.521 413.727 642.979 476.862C643.212 508.872 629.851 540.078 607.163 562.649C606.799 563.01 607.47 562.251 607.163 562.649C571.446 574.563 545.617 608.291 545.617 647.961C545.617 697.546 585.958 737.887 635.544 737.887H673.382C747.979 737.887 811.369 689.027 833.258 621.632C833.437 621.175 833.593 620.71 833.713 620.238C838.232 605.895 840.872 590.729 841.351 575.027C864.667 569.243 887.026 559.767 907.414 546.939V667.317C907.414 705.163 895.255 742.095 872.997 772.444C858.105 762.072 840.03 755.968 820.547 755.968C770.78 755.968 730.144 795.688 728.605 845.088H614.792C613.253 795.688 572.616 755.968 522.849 755.968C500.504 755.968 479.999 763.981 464.041 777.275C449.861 759.256 439.155 738.482 432.853 716.581C431.051 710.32 424.518 706.703 418.253 708.507C411.991 710.308 408.376 716.845 410.178 723.106C417.663 749.114 430.624 773.711 447.845 794.779C437.149 809.813 430.833 828.169 430.833 847.984C430.833 898.721 472.11 940 522.849 940C566.469 940 603.07 909.481 612.489 868.682H730.907C740.326 909.481 776.927 940 820.547 940C871.286 940 912.563 898.721 912.563 847.984C912.563 825.256 904.263 804.443 890.558 788.372C916.701 753.625 931.008 711.004 931.008 667.318V524.213ZM817.369 581.628C816.542 591.816 814.646 601.705 811.807 611.19C796.116 627.079 774.531 636.164 752.143 636.164H707.463C700.949 636.164 695.666 641.445 695.666 647.961C695.666 654.476 700.949 659.757 707.463 659.757H752.143C765.95 659.757 779.521 657.063 792.13 652.002C766.022 689.614 722.534 714.293 673.382 714.293H635.544C598.967 714.293 569.211 684.536 569.211 647.961C569.211 611.841 598.235 582.392 634.182 581.662L817.369 581.628ZM522.849 916.407C485.121 916.407 454.427 885.713 454.427 847.985C454.427 810.258 485.121 779.563 522.849 779.563C560.577 779.563 591.271 810.258 591.271 847.985C591.271 885.713 560.578 916.407 522.849 916.407ZM820.547 916.407C782.82 916.407 752.125 885.713 752.125 847.985C752.125 810.258 782.82 779.563 820.547 779.563C858.275 779.563 888.969 810.258 888.969 847.985C888.969 885.713 858.275 916.407 820.547 916.407Z" fill="white"/>
<path d="M540.285 471.961C540.285 451.541 523.674 434.93 503.254 434.93C482.835 434.93 466.223 451.543 466.223 471.961C466.223 492.379 482.835 508.991 503.254 508.991C523.674 508.991 540.285 492.379 540.285 471.961V471.961ZM489.816 471.961C489.816 464.551 495.843 458.524 503.254 458.524C510.663 458.524 516.691 464.551 516.691 471.961C516.691 479.37 510.664 485.397 503.254 485.397C495.845 485.397 489.816 479.37 489.816 471.961V471.961Z" fill="white"/>
<path d="M522.85 812.594C503.335 812.594 487.459 828.471 487.459 847.985C487.459 867.499 503.335 883.376 522.85 883.376C542.364 883.376 558.24 867.499 558.24 847.985C558.24 828.471 542.364 812.594 522.85 812.594ZM522.85 859.782C516.345 859.782 511.053 854.49 511.053 847.985C511.053 841.48 516.345 836.188 522.85 836.188C529.354 836.188 534.647 841.48 534.647 847.985C534.647 854.49 529.354 859.782 522.85 859.782Z" fill="white"/>
<path d="M820.547 812.594C801.033 812.594 785.156 828.471 785.156 847.985C785.156 867.499 801.033 883.376 820.547 883.376C840.061 883.376 855.938 867.499 855.938 847.985C855.938 828.471 840.061 812.594 820.547 812.594ZM820.547 859.782C814.042 859.782 808.75 854.49 808.75 847.985C808.75 841.48 814.042 836.188 820.547 836.188C827.052 836.188 832.344 841.48 832.344 847.985C832.344 854.49 827.052 859.782 820.547 859.782Z" fill="white"/>
<path d="M422.489 675.657C424.684 673.462 425.947 670.419 425.947 667.316C425.947 664.214 424.685 661.17 422.489 658.976C420.296 656.781 417.253 655.519 414.137 655.519C411.034 655.519 407.991 656.781 405.798 658.976C403.603 661.17 402.34 664.214 402.34 667.316C402.34 670.419 403.602 673.462 405.798 675.657C407.991 677.851 411.034 679.113 414.137 679.113C417.253 679.112 420.296 677.851 422.489 675.657Z" fill="white"/>
<defs>
<filter id="filter0_d" x="0.5" y="0.5" width="1319" height="1319" filterUnits="userSpaceOnUse" color-interpolation-filters="sRGB">
<feFlood flood-opacity="0" result="BackgroundImageFix"/>
<feColorMatrix in="SourceAlpha" type="matrix" values="0 0 0 0 0 0 0 0 0 0 0 0 0 0 0 0 0 0 127 0"/>
<feMorphology radius="33" operator="dilate" in="SourceAlpha" result="effect1_dropShadow"/>
<feOffset dx="31" dy="22"/>
<feGaussianBlur stdDeviation="19"/>
<feColorMatrix type="matrix" values="0 0 0 0 0 0 0 0 0 0 0 0 0 0 0 0 0 0 0.02 0"/>
<feBlend mode="normal" in2="BackgroundImageFix" result="effect1_dropShadow"/>
<feBlend mode="normal" in="SourceGraphic" in2="effect1_dropShadow" result="shape"/>
</filter>
</defs>
</svg>
