<svg height="512pt" viewBox="-1 0 512 512" width="512pt" xmlns="http://www.w3.org/2000/svg"><path d="m385.03125 120 50-120c20.03125 0 36.875 12.34375 42.90625 31.429688l8.855469 28.570312zm0 0" fill="#01b1bc"/><path d="m383.273438 60 8.847656-28.546875c6.03125-19.105469 22.871094-31.453125 42.90625-31.453125.003906 0 .003906 120 .003906 120zm0 0" fill="#3ac7cf"/><path d="m435.03125 60h51.761719l23.246093 75-135.007812 60zm0 0" fill="#fbd291"/><path d="m435.03125 195-74.992188-60 23.234376-75h51.757812zm0 0" fill="#faefa3"/><path d="m510.039062 135-.011718 377h-74.996094l-60-188.5 60-188.5zm0 0" fill="#01b1bc"/><path d="m435.03125 512h-75.007812l.015624-377h74.992188zm0 0" fill="#3ac7cf"/><path d="m25.007812 120 50-120c20.03125 0 36.875 12.34375 42.902344 31.429688l8.855469 28.570312zm0 0" fill="#f7be48"/><path d="m23.25 60 8.84375-28.546875c6.03125-19.105469 22.875-31.453125 42.910156-31.453125.003906 0 .003906 120 .003906 120zm0 0" fill="#f4de48"/><path d="m75.007812 60h51.757813l23.246094 75-135.003907 60zm0 0" fill="#fbd291"/><path d="m75.007812 195-74.9960932-60 23.2382812-75h51.757812zm0 0" fill="#faefa3"/><path d="m150.011719 135-.011719 377h-74.992188l-60-188.5 60-188.5zm0 0" fill="#f7be48"/><path d="m75.007812 512h-75.007812l.0117188-377h74.9960932zm0 0" fill="#f4de48"/><path d="m205.019531 392 50 120c20.03125 0 36.875-12.34375 42.90625-31.429688l8.851563-28.570312zm0 0" fill="#ff3a33"/><path d="m203.261719 452 8.84375 28.546875c6.035156 19.105469 22.875 31.449219 42.910156 31.453125.003906 0 .003906-120 .003906-120zm0 0" fill="#fe5e49"/><path d="m255.019531 452h51.757813l23.246094-75-135.003907-60zm0 0" fill="#fbd291"/><path d="m255.019531 317-74.992187 60 23.234375 75h51.757812zm0 0" fill="#faefa3"/><path d="m330.023438 377-.007813-377h-74.996094l-60 188.5 60 188.5zm0 0" fill="#ff3a33"/><path d="m255.019531 0h-75.007812l.015625 377h74.992187zm0 0" fill="#fe5e49"/></svg>