<svg width="2415" height="1136" viewBox="0 0 2415 1136" fill="none" xmlns="http://www.w3.org/2000/svg">
<g clip-path="url(#clip0)">
<rect width="2415" height="1136" fill="#3AA684"/>
<path d="M2537.74 1445.05C2373.27 1705.36 2059.05 1764.86 1766.46 1704.39C1472.71 1645.07 1200.47 1463.37 1131.82 1206.7C1064.32 948.864 1200.31 613.646 1501.48 443.613C1802.66 273.58 2270.17 267.57 2495.98 495.701C2720.53 722.572 2703.38 1183.58 2537.74 1445.05Z" fill="#38A27D"/>
<path d="M103.925 801.796C-44.3763 800.923 -166.793 711.315 -199.831 609.489C-232.87 507.664 -176.374 393.012 -75.9435 301.895C24.6428 210.168 168.556 141.82 288.687 199.714C408.21 257.452 503.343 441.277 464.121 577.199C424.743 713.729 251.618 802.513 103.925 801.796Z" fill="#38A27D"/>
<path d="M466.701 1076.33C488.42 1039.35 546.037 1005.97 618.369 989.627C690.441 973.556 777.063 974.363 777.745 1022.56C778.427 1070.77 692.908 1166.64 627.582 1203.19C562.517 1239.47 517.81 1216.58 488.402 1185.14C458.829 1153.56 444.816 1113.15 466.701 1076.33Z" fill="#38A17D"/>
<circle cx="1764" cy="268" r="16" fill="white" fill-opacity="0.04"/>
<circle cx="327" cy="401" r="11" fill="white" fill-opacity="0.04"/>
<circle cx="192" cy="1062" r="16" fill="white" fill-opacity="0.04"/>
<circle cx="2225.5" cy="667.5" r="28.5" fill="white" fill-opacity="0.04"/>
</g>
<defs>
<clipPath id="clip0">
<rect width="2415" height="1136" fill="white"/>
</clipPath>
</defs>
</svg>
